<svg xmlns="http://www.w3.org/2000/svg" viewBox="0 0 722.59 311.09"><defs><style>.a{fill:none;}.b{fill:#fff;}.c{fill:#f2d272;}</style></defs><title>403white</title><path class="a" d="M491.72,88.74c-47.07,0-72.62,32.73-72.62,108v33.17c0,74.86,25.11,110.72,72.17,110.72,46.17,0,71.27-31.37,71.27-108.48V199C562.54,123.26,537.89,88.74,491.72,88.74Z" transform="translate(-113.84 -59.16)"/><polygon class="a" points="142.1 211.54 142.1 56.89 38.1 211.54 142.1 211.54"/><path class="b" d="M204,291v.53c0,3.71,1.6,4.89,4,4.89a5.05,5.05,0,0,0,3.25-1.12V287a5.59,5.59,0,0,0-3.2-.86C205.5,286.12,204,287.43,204,291Z" transform="translate(-113.84 -59.16)"/><path class="b" d="M288.66,60.05H260.87l-147,212.87v26.66h142.1v69.77h32.72V299.58h50.2V270.7h-50.2ZM145.33,296.24H143v-2.43h2.3Zm0-9.82H143V284h2.3Zm11.72-6a8.82,8.82,0,0,0-1.87-.18c-1.57,0-2.46.75-2.46,2.59v1.79h3.05v1.68h-3.05v11.53h-2.05V286.34h-1.95v-1.68h1.95v-1.93c0-2.91,1.73-4.16,4.14-4.16a5,5,0,0,1,2.24.45Zm12.65,10.92c0,4.22-2.45,6.73-6,6.73-3.74,0-6-2.4-6-6.62v-.4c0-4.19,2.43-6.7,6-6.7,3.73,0,6,2.43,6,6.62Zm9.64-5a8,8,0,0,0-1-.08,6.21,6.21,0,0,0-3.55,1.15v10.41h-2.06V284.63h1.95v1.49h.13a5.2,5.2,0,0,1,3.69-1.62,5.26,5.26,0,0,1,.8.05Zm14.09,4.83c0,4.43-2.32,6.94-6.59,6.94a15.62,15.62,0,0,1-4.83-.72V278.76h2.05v6.75h.14a7.52,7.52,0,0,1,4.08-1.12c2.54,0,5.15,1.52,5.15,6.49Zm5.24,6.65h-2V284.66h2Zm0-15.88h-2.08v-2.14h2.08Zm14.58,15.88h-1.71l-.24-1.1h-.11a5.39,5.39,0,0,1-3.87,1.34c-2.64,0-5.5-1.6-5.5-6.49v-.34c0-4.81,2.49-6.89,5.9-6.89a6.62,6.62,0,0,1,3.47.88v-6.51h2.06Zm14.55,0h-1.71l-.24-1.1h-.11a5.39,5.39,0,0,1-3.87,1.34c-2.64,0-5.5-1.6-5.5-6.49v-.34c0-4.81,2.48-6.89,5.9-6.89a6.62,6.62,0,0,1,3.47.88v-6.51h2.06ZM242,291.76h-9c.11,3.31,1.68,4.59,4.51,4.59a9,9,0,0,0,4.14-1v1.52a7.87,7.87,0,0,1-4.46,1.23c-4.16,0-6.27-2.54-6.27-6.67v-.38c0-4.62,2.72-6.67,5.76-6.67,3.63,0,5.34,2.11,5.34,6.22Zm13.54,6.11h-2v-9.45c0-1.6-.56-2.27-2.67-2.27a9.41,9.41,0,0,0-3.74,1v10.76h-2V284.63H247v1.15h.11a8.78,8.78,0,0,1,4.56-1.39c2.59,0,3.85,1,3.85,3.6Zm.41-27.17h-104l104-154.65Z" transform="translate(-113.84 -59.16)"/><path class="b" d="M218.53,291v.53c0,3.71,1.6,4.89,4,4.89a5.07,5.07,0,0,0,3.25-1.12V287a5.59,5.59,0,0,0-3.2-.86C220.05,286.12,218.53,287.43,218.53,291Z" transform="translate(-113.84 -59.16)"/><path class="b" d="M163.67,286.07c-2.4,0-3.9,1.71-3.9,4.81v.66c0,3.69,1.74,4.89,3.95,4.89,2.41,0,3.9-1.68,3.9-4.81V291C167.62,287.27,165.83,286.07,163.67,286.07Z" transform="translate(-113.84 -59.16)"/><path class="b" d="M236.6,286c-1.65,0-3.42,1-3.63,4.09h6.89C239.86,287.24,238.76,286,236.6,286Z" transform="translate(-113.84 -59.16)"/><path class="b" d="M187.35,286.12a8.06,8.06,0,0,0-3.29.86v9a7.3,7.3,0,0,0,2.89.48c2.37,0,4.35-1.12,4.35-4.91V291C191.3,287.33,190,286.12,187.35,286.12Z" transform="translate(-113.84 -59.16)"/><path class="b" d="M491.72,59.16C432.55,59.16,381,95,381,201.25v25.11c0,101.75,48.41,143.89,110.27,143.89,61,0,107.58-41.69,107.58-143.44V199.46C598.85,95,550.44,59.16,491.72,59.16Zm70.82,173c0,77.11-25.1,108.48-71.27,108.48-47.06,0-72.17-35.86-72.17-110.72V196.77c0-75.3,25.55-108,72.62-108,46.17,0,70.82,34.52,70.82,110.27Z" transform="translate(-113.84 -59.16)"/><path class="b" d="M767.85,203.94c34.07-11.2,57.38-33.17,57.38-70.37,0-47.07-36.76-74.41-90.55-74.41-26,0-61.41,11.2-79.34,23.31l5.37,28.69c18.83-10.76,42.14-21.52,66.8-21.52,36.75,0,60.51,13,60.51,49.76,0,33.61-26.45,53.34-65.45,53.34H695.68v30.48h29.14c45.72,0,75.3,18.38,75.3,56.93,0,37.2-27.79,59.17-77.55,59.17-22.41,0-52.44-8.52-69.48-19.72l-7.62,28.24c16.59,11.65,46.62,21.51,81.59,21.51,66.79,0,109.37-36.76,109.37-89.2C836.43,233.53,806.85,211.57,767.85,203.94Z" transform="translate(-113.84 -59.16)"/><rect class="c" x="29.2" y="234.65" width="2.3" height="2.43"/><rect class="c" x="29.2" y="224.86" width="2.3" height="2.4"/><path class="c" d="M150.67,282.73v1.93h-1.95v1.68h1.95v11.53h2.05V286.34h3.05v-1.68h-3.05v-1.79c0-1.84.89-2.59,2.46-2.59a8.82,8.82,0,0,1,1.87.18V279a5,5,0,0,0-2.24-.45C152.4,278.57,150.67,279.82,150.67,282.73Z" transform="translate(-113.84 -59.16)"/><path class="c" d="M163.7,284.39c-3.58,0-6,2.51-6,6.7v.4c0,4.22,2.24,6.62,6,6.62,3.58,0,6-2.51,6-6.73V291C169.7,286.82,167.43,284.39,163.7,284.39Zm3.92,7.23c0,3.13-1.49,4.81-3.9,4.81-2.21,0-3.95-1.2-3.95-4.89v-.66c0-3.1,1.5-4.81,3.9-4.81,2.16,0,4,1.2,4,4.88Z" transform="translate(-113.84 -59.16)"/><path class="c" d="M174.85,286.12h-.13v-1.49h-1.95v13.24h2.06V287.46a6.21,6.21,0,0,1,3.55-1.15,8,8,0,0,1,1,.08v-1.84a5.26,5.26,0,0,0-.8-.05A5.2,5.2,0,0,0,174.85,286.12Z" transform="translate(-113.84 -59.16)"/><path class="c" d="M188.28,284.39a7.52,7.52,0,0,0-4.08,1.12h-.14v-6.75H182v18.68a15.62,15.62,0,0,0,4.83.72c4.27,0,6.59-2.51,6.59-6.94v-.34C193.43,285.91,190.82,284.39,188.28,284.39Zm3,7.15c0,3.79-2,4.91-4.35,4.91a7.3,7.3,0,0,1-2.89-.48v-9a8.06,8.06,0,0,1,3.29-.86c2.67,0,4,1.21,4,4.89Z" transform="translate(-113.84 -59.16)"/><rect class="c" x="82.8" y="225.5" width="2.03" height="13.21"/><rect class="c" x="82.77" y="220.69" width="2.08" height="2.14"/><path class="c" d="M211.21,285.27a6.62,6.62,0,0,0-3.47-.88c-3.41,0-5.9,2.08-5.9,6.89v.34c0,4.89,2.86,6.49,5.5,6.49a5.39,5.39,0,0,0,3.87-1.34h.11l.24,1.1h1.71V278.76h-2.06Zm0,10a5.05,5.05,0,0,1-3.25,1.12c-2.38,0-4-1.18-4-4.89V291c0-3.58,1.52-4.89,4-4.89a5.59,5.59,0,0,1,3.2.86Z" transform="translate(-113.84 -59.16)"/><path class="c" d="M225.76,285.27a6.62,6.62,0,0,0-3.47-.88c-3.42,0-5.9,2.08-5.9,6.89v.34c0,4.89,2.86,6.49,5.5,6.49a5.39,5.39,0,0,0,3.87-1.34h.11l.24,1.1h1.71V278.76h-2.06Zm0,10a5.07,5.07,0,0,1-3.25,1.12c-2.38,0-4-1.18-4-4.89V291c0-3.58,1.52-4.89,4-4.89a5.59,5.59,0,0,1,3.2.86Z" transform="translate(-113.84 -59.16)"/><path class="c" d="M236.65,284.39c-3,0-5.76,2.05-5.76,6.67v.38c0,4.13,2.11,6.67,6.27,6.67a7.87,7.87,0,0,0,4.46-1.23v-1.52a9,9,0,0,1-4.14,1c-2.83,0-4.4-1.28-4.51-4.59h9v-1.15C242,286.5,240.28,284.39,236.65,284.39ZM233,290.13c.21-3.13,2-4.09,3.63-4.09,2.16,0,3.26,1.2,3.26,4.09Z" transform="translate(-113.84 -59.16)"/><path class="c" d="M251.68,284.39a8.78,8.78,0,0,0-4.56,1.39H247v-1.15h-1.95v13.24h2V287.11a9.41,9.41,0,0,1,3.74-1c2.11,0,2.67.67,2.67,2.27v9.45h2V288C255.53,285.43,254.27,284.39,251.68,284.39Z" transform="translate(-113.84 -59.16)"/></svg>